<svg width="1920" height="152" viewBox="0 0 1920 152" fill="none" xmlns="http://www.w3.org/2000/svg">
<rect y="1" width="1920" height="150" fill="url(#paint0_linear_8_112)"/>
<path fill-rule="evenodd" clip-rule="evenodd" d="M1920 7.86207L1915.2 14.4138C1905.6 20.9655 1896 34.069 1881.6 36.6897C1867.2 39.3103 1852.8 31.4483 1843.2 24.8966C1828.8 18.3448 1814.4 13.1035 1804.8 18.3448C1790.4 23.5862 1776 39.3103 1761.6 48.4828C1752 57.6552 1737.6 60.2759 1723.2 51.1035C1708.8 41.931 1699.2 20.9655 1684.8 14.4138C1670.4 7.86207 1660.8 66.8276 1646.4 66.8276C1632 66.8276 1617.6 7.86207 1608 13.1034C1593.6 18.3448 1579.2 36.6897 1569.6 40.6207C1555.2 44.5517 1547.38 27 1526.22 27C1512 26.5 1502.4 77 1488 77C1473.6 77 1464 20.9655 1449.6 20.9655C1435.2 20.9655 1425.6 18.3448 1411.2 24.8966C1396.8 31.4483 1382.4 47.1724 1372.8 49.7931C1358.4 52.4138 1344 41.931 1334.4 31.4483C1320 20.9655 1305.6 10.4828 1291.2 17.0345C1281.6 23.5862 1267.2 47.1724 1252.8 60.2759C1243.2 73.3793 1224.18 49.7931 1209.78 49.7931C1195.38 49.7931 1190.4 73.3793 1176 70.7586C1161.6 68.1379 1158.93 17.0345 1149.33 17.0345C1134.93 17.0345 1131.56 77.5 1099.2 66.8276C1084.8 65.5172 1070.4 60.2759 1056 53.7241C1046.4 47.1724 1032 39.3103 1017.6 40.6207C1008 41.931 993.6 52.4138 979.2 49.7931C964.8 47.1724 955.2 31.4483 940.8 30.1379C926.4 28.8276 912 41.931 902.4 51.1035C888 60.2759 873.6 65.5172 864 56.3448C849.6 47.1724 835.2 23.5862 820.8 11.7931C811.2 0 796.8 0 782.4 9.17242C772.8 18.3448 758.4 36.6897 744 47.1724C729.6 57.6552 720 60.2759 705.6 53.7241C691.2 47.1724 676.8 31.4483 667.2 23.5862C652.8 15.7241 638.4 15.7241 628.8 17.0345C614.4 18.3448 600 20.9655 585.6 24.8966C576 28.8276 561.6 34.069 547.2 40.6207C537.6 47.1724 523.2 55.0345 508.8 48.4828C494.4 41.931 484.8 20.9655 470.4 14.4138C456 7.86207 446.4 15.7241 432 24.8966C417.6 34.069 403.2 44.5517 393.6 45.8621C379.2 47.1724 364.8 39.3103 350.4 36.6897C340.8 34.069 326.4 36.6897 312 40.6207C302.4 44.5517 288 49.7931 273.6 55.0345C259.2 60.2759 249.6 65.5172 235.2 69.4483C220.8 73.3793 211.2 76 196.8 66.8276C182.4 57.6552 168 36.6897 158.4 34.069C144 31.4483 129.6 77 115.2 77C105.6 77 91.2 31.4483 76.7999 27.5172C67.2 23.5862 52.7999 31.4483 38.3999 39.3103C23.9999 47.1724 14.3999 55.0345 4.79993 58.9655L0 62.8966V0H4.79993C14.3999 0 23.9999 0 38.3999 0C52.7999 0 67.2 0 76.7999 0C91.2 0 105.6 0 115.2 0C129.6 0 144 0 158.4 0C168 0 182.4 0 196.8 0C211.2 0 220.8 0 235.2 0C249.6 0 259.2 0 273.6 0C288 0 302.4 0 312 0C326.4 0 340.8 0 350.4 0C364.8 0 379.2 0 393.6 0C403.2 0 417.6 0 432 0C446.4 0 456 0 470.4 0C484.8 0 494.4 0 508.8 0C523.2 0 537.6 0 547.2 0C561.6 0 576 0 585.6 0C600 0 614.4 0 628.8 0C638.4 0 652.8 0 667.2 0C676.8 0 691.2 0 705.6 0C720 0 729.6 0 744 0C758.4 0 772.8 0 782.4 0C796.8 0 811.2 0 820.8 0C835.2 0 849.6 0 864 0C873.6 0 888 0 902.4 0C912 0 926.4 0 940.8 0C955.2 0 964.8 0 979.2 0C993.6 0 1008 0 1017.6 0C1032 0 1046.4 0 1056 0C1070.4 0 1084.8 0 1099.2 0C1108.8 0 1123.2 0 1137.6 0C1147.2 0 1161.6 0 1176 0C1190.4 0 1200 0 1214.4 0C1228.8 0 1243.2 0 1252.8 0C1267.2 0 1281.6 0 1291.2 0C1305.6 0 1320 0 1334.4 0C1344 0 1358.4 0 1372.8 0C1382.4 0 1396.8 0 1411.2 0C1425.6 0 1435.2 0 1449.6 0C1464 0 1473.6 0 1488 0C1502.4 0 1516.8 0 1526.4 0C1540.8 0 1555.2 0 1569.6 0C1579.2 0 1593.6 0 1608 0C1617.6 0 1632 0 1646.4 0C1660.8 0 1670.4 0 1684.8 0C1699.2 0 1708.8 0 1723.2 0C1737.6 0 1752 0 1761.6 0C1776 0 1790.4 0 1804.8 0C1814.4 0 1828.8 0 1843.2 0C1852.8 0 1867.2 0 1881.6 0C1896 0 1905.6 0 1915.2 0H1920V7.86207Z" fill="#2A303C"/>
<path fill-rule="evenodd" clip-rule="evenodd" d="M1920 80.9332L1915.2 91.2971C1905.6 101.661 1896 122.389 1881.6 126.831C1867.2 131.272 1871.1 65.9806 1861.5 64.5C1847.1 63.0194 1814.4 125.35 1804.8 120.908C1790.4 116.467 1776 98.6999 1761.6 91.2971C1752 83.8943 1737.6 86.8554 1723.2 88.336C1708.8 89.8166 1710.4 131.272 1696 132.753C1681.6 134.233 1660.8 95.7388 1646.4 104.622C1632 113.505 1617.6 128.311 1608 134.233C1593.6 140.156 1564.6 123.869 1555 119.428C1540.6 114.986 1531.4 89.8166 1517 88.336C1507.4 86.8554 1502.4 122.389 1488 114.986C1473.6 107.583 1464 89.8166 1449.6 92.7777C1435.2 95.7388 1425.6 119.428 1411.2 122.389C1396.8 125.35 1382.4 107.583 1372.8 97.2194C1358.4 86.8554 1344 83.8943 1334.4 88.336C1320 92.7777 1305.6 104.622 1291.2 104.622C1281.6 104.622 1267.2 92.7777 1252.8 97.2194C1243.2 101.661 1228.8 122.389 1214.4 132.753C1200 143.117 1190.4 143.117 1176 134.233C1161.6 125.35 1147.2 107.583 1137.6 104.622C1123.2 101.661 1108.8 113.505 1099.2 113.505C1084.8 113.505 1070.4 101.661 1056 106.103C1046.4 110.544 1032 131.272 1017.6 135.714C1008 140.156 993.6 128.311 979.2 119.428C964.8 110.544 955.2 104.622 940.8 106.103C926.4 107.583 912 116.467 902.4 123.869C888 131.272 873.6 137.194 864 137.194C849.6 137.194 835.2 131.272 820.8 120.908C811.2 110.544 796.8 95.7388 782.4 91.2971C772.8 86.8554 758.4 92.7777 744 98.6999C729.6 104.622 720 110.544 705.6 109.064C691.2 107.583 676.8 98.6999 667.2 97.2194C652.8 95.7388 638.4 101.661 628.8 110.544C614.4 119.428 600 131.272 585.6 129.792C576 128.311 561.6 113.505 547.2 106.103C537.6 98.6999 523.2 98.6999 508.8 106.103C494.4 113.505 484.8 128.311 470.4 128.311C456 128.311 446.4 113.505 432 110.544C417.6 107.583 403.2 116.467 393.6 113.505C379.2 110.544 364.8 95.7388 350.4 86.8554C340.8 77.9721 326.4 75.011 312 85.3749C302.4 95.7388 288 119.428 273.6 123.869C259.2 128.311 249.6 113.505 235.2 112.025C220.8 110.544 211.2 122.389 196.8 129.792C182.4 137.194 168 92.7777 158.4 92.7777C144 92.7777 129.6 137.194 115.2 134.233C105.6 131.272 91.2 128.311 76.7999 116.467C67.2 104.622 52.7999 83.8943 38.3999 77.9721C23.9999 72.0499 14.3999 80.9332 4.79993 85.3749L0 89.8166V152H4.79993C14.3999 152 23.9999 152 38.3999 152C52.7999 152 67.2 152 76.7999 152C91.2 152 105.6 152 115.2 152C129.6 152 144 152 158.4 152C168 152 182.4 152 196.8 152C211.2 152 220.8 152 235.2 152C249.6 152 259.2 152 273.6 152C288 152 302.4 152 312 152C326.4 152 340.8 152 350.4 152C364.8 152 379.2 152 393.6 152C403.2 152 417.6 152 432 152C446.4 152 456 152 470.4 152C484.8 152 494.4 152 508.8 152C523.2 152 537.6 152 547.2 152C561.6 152 576 152 585.6 152C600 152 614.4 152 628.8 152C638.4 152 652.8 152 667.2 152C676.8 152 691.2 152 705.6 152C720 152 729.6 152 744 152C758.4 152 772.8 152 782.4 152C796.8 152 811.2 152 820.8 152C835.2 152 849.6 152 864 152C873.6 152 888 152 902.4 152C912 152 926.4 152 940.8 152C955.2 152 964.8 152 979.2 152C993.6 152 1008 152 1017.6 152C1032 152 1046.4 152 1056 152C1070.4 152 1084.8 152 1099.2 152C1108.8 152 1123.2 152 1137.6 152C1147.2 152 1161.6 152 1176 152C1190.4 152 1200 152 1214.4 152C1228.8 152 1243.2 152 1252.8 152C1267.2 152 1281.6 152 1291.2 152C1305.6 152 1320 152 1334.4 152C1344 152 1358.4 152 1372.8 152C1382.4 152 1396.8 152 1411.2 152C1425.6 152 1435.2 152 1449.6 152C1464 152 1473.6 152 1488 152C1502.4 152 1516.8 152 1526.4 152C1540.8 152 1555.2 152 1569.6 152C1579.2 152 1593.6 152 1608 152C1617.6 152 1632 152 1646.4 152C1660.8 152 1670.4 152 1684.8 152C1699.2 152 1708.8 152 1723.2 152C1737.6 152 1752 152 1761.6 152C1776 152 1790.4 152 1804.8 152C1814.4 152 1828.8 152 1843.2 152C1852.8 152 1867.2 152 1881.6 152C1896 152 1905.6 152 1915.2 152H1920V80.9332Z" fill="#2A303C"/>
<defs>
<linearGradient id="paint0_linear_8_112" x1="960" y1="1" x2="960" y2="151" gradientUnits="userSpaceOnUse">
<stop stop-color="#D926AA" stop-opacity="0"/>
<stop offset="0.0001" stop-color="#D926AA"/>
<stop offset="0.9999" stop-color="#661AE6"/>
<stop offset="1" stop-color="#661AE6"/>
</linearGradient>
</defs>
</svg>
